<svg xmlns="http://www.w3.org/2000/svg" width="640" height="640" viewBox="0 0 640 640" fill="none">
  <defs>
    <radialGradient id="glow" cx="50%" cy="55%" r="55%">
      <stop offset="0%" stop-color="#F18700" stop-opacity="0.18"/>
      <stop offset="100%" stop-color="#090909" stop-opacity="0"/>
    </radialGradient>
    <linearGradient id="bunTop" x1="0" y1="0" x2="1" y2="1">
      <stop offset="0%" stop-color="#E8B85A"/>
      <stop offset="100%" stop-color="#C48B2E"/>
    </linearGradient>
    <linearGradient id="bunBot" x1="0" y1="0" x2="0" y2="1">
      <stop offset="0%" stop-color="#D4A24E"/>
      <stop offset="100%" stop-color="#9A6B28"/>
    </linearGradient>
    <linearGradient id="patty" x1="0" y1="0" x2="1" y2="0">
      <stop offset="0%" stop-color="#2A1608"/>
      <stop offset="50%" stop-color="#4A2814"/>
      <stop offset="100%" stop-color="#2A1608"/>
    </linearGradient>
    <filter id="shadow" x="-20%" y="-20%" width="140%" height="140%">
      <feDropShadow dx="0" dy="18" stdDeviation="22" flood-color="#090909" flood-opacity="0.45"/>
    </filter>
  </defs>
  <ellipse cx="320" cy="420" rx="240" ry="28" fill="url(#glow)"/>
  <g filter="url(#shadow)">
    <ellipse cx="320" cy="470" rx="210" ry="52" fill="url(#bunBot)"/>
    <ellipse cx="320" cy="448" rx="205" ry="18" fill="#B87A22" opacity="0.5"/>
    <rect x="118" y="388" width="404" height="28" rx="14" fill="#3D2314"/>
    <ellipse cx="320" cy="388" rx="202" ry="38" fill="url(#patty)"/>
    <path d="M130 360 Q200 330 320 340 Q440 330 510 360 L500 378 Q320 400 140 378 Z" fill="#F18700"/>
    <path d="M145 350 Q230 318 320 328 Q410 318 495 350 L485 365 Q320 385 155 365 Z" fill="#FFB347" opacity="0.85"/>
    <path d="M120 330 Q180 300 320 308 Q460 300 520 330 L510 345 Q320 362 130 345 Z" fill="#4A7C3F"/>
    <ellipse cx="320" cy="300" rx="195" ry="58" fill="url(#bunTop)"/>
    <ellipse cx="250" cy="278" rx="14" ry="8" fill="#F2EFEA" opacity="0.7"/>
    <ellipse cx="300" cy="268" rx="12" ry="7" fill="#F2EFEA" opacity="0.65"/>
    <ellipse cx="355" cy="272" rx="13" ry="8" fill="#F2EFEA" opacity="0.7"/>
    <ellipse cx="395" cy="285" rx="11" ry="6" fill="#F2EFEA" opacity="0.6"/>
    <ellipse cx="220" cy="292" rx="10" ry="6" fill="#F2EFEA" opacity="0.55"/>
  </g>
</svg>
